<svg xmlns="http://www.w3.org/2000/svg" width="16" height="14" viewBox="0 0 16 14">
  <path fill="red" d="M11.7256794,0 C13.0597929,0 14.1027939,0.375554404 14.867448,1.13319267 C15.622504,1.88756523 16,2.93258275 16,4.26824848 C16,5.61372114 15.318562,6.97875541 13.955622,8.36994802 L13.955622,8.36994802 L8.39511471,13.8367145 C8.28636745,13.9444829 8.15516048,14 8.00158978,14 C7.84485168,14 7.7136767,13.9444829 7.60809684,13.8367145 L7.60809684,13.8367145 L2.03799139,8.35035376 C1.97720619,8.3013681 1.89722465,8.21972534 1.79164479,8.1119569 C1.68606493,8.00092275 1.52289925,7.80171442 1.29574258,7.51433191 C1.06858912,7.2269494 0.867024366,6.92976976 0.687861743,6.62605869 C0.508695921,6.32234763 0.351932225,5.95335502 0.211159079,5.52228125 C0.0703872129,5.09120749 0,4.67319656 0,4.26498277 C0,2.92931704 0.377524143,1.88429952 1.13257371,1.12992696 C1.88762328,0.375554404 2.93061792,0 4.26476661,0 C4.63266443,0 5.01019242,0.0653138804 5.39411918,0.195940335 C5.77804594,0.326568749 6.13637758,0.502913842 6.46591472,0.724982145 C6.79545186,0.947047183 7.08019754,1.15278694 7.31695238,1.34872629 C7.55370721,1.54466891 7.78086388,1.7504054 7.99522299,1.96920799 C8.2095821,1.7504054 8.43670677,1.54466891 8.67346161,1.34872629 C8.91021645,1.15605265 9.19496213,0.947047183 9.52449927,0.724982145 C9.8540364,0.502913842 10.212368,0.326568749 10.5962948,0.195940335 C10.9802216,0.0653138804 11.3577496,0 11.7256794,0 Z"/>
</svg>
