<svg xmlns="http://www.w3.org/2000/svg" width="16" height="14" viewBox="0 0 16 14">
  <path fill="red" d="M11.7256794,1.30627206 C12.7206576,1.30627206 13.4533178,1.55446604 13.9652202,2.06391359 C14.4675243,2.56682645 14.7138773,3.28526967 14.7138773,4.26498277 C14.7138773,5.24143016 14.1539841,6.30601908 13.0533941,7.43268915 L7.99522299,12.4030676 L2.92101975,7.40656347 L2.88262387,7.36737494 L2.83783242,7.32818642 C2.83783242,7.32818642 2.79943974,7.29552931 2.70665744,7.197558 C2.67146415,7.16163519 2.5626881,7.04080391 2.29394257,6.69463861 C2.10518178,6.45297605 1.93241473,6.20154901 1.78524601,5.95008931 C1.65727042,5.73128672 1.53569361,5.44716992 1.42371497,5.11080175 C1.32773328,4.81362211 1.27974564,4.52950531 1.27974564,4.26498277 C1.27974564,3.28526967 1.52289605,2.56682645 2.02839642,2.06391359 C2.54029237,1.55446604 3.27295581,1.30627206 4.26793401,1.30627206 C4.49829007,1.30627206 4.74144368,1.34872629 4.99099608,1.43363476 C5.26934298,1.52834036 5.52849354,1.65570306 5.76524838,1.8157196 C6.05959223,2.01492794 6.31554341,2.20107016 6.52030435,2.36762139 C6.7218659,2.53090364 6.91382928,2.707252 7.0929951,2.89012851 L7.99842238,3.81431474 L8.90381767,2.89012851 C9.08298349,2.707252 9.27814626,2.53090364 9.47650842,2.36762139 C9.68446875,2.19780445 9.94041993,2.01166222 10.2347638,1.8157196 C10.4715186,1.65896877 10.7306692,1.52834036 11.0058167,1.43690047 C11.2521697,1.34872629 11.4985227,1.30627206 11.7256794,1.30627206 Z M11.7256794,0 C11.3577496,0 10.9802216,0.0653138804 10.5962948,0.195940335 C10.212368,0.326568749 9.8540364,0.502913842 9.52449927,0.724982145 C9.19496213,0.947047183 8.91021645,1.15605265 8.67346161,1.34872629 C8.43670677,1.54466891 8.2095821,1.7504054 7.99522299,1.96920799 C7.78086388,1.7504054 7.55370721,1.54466891 7.31695238,1.34872629 C7.08019754,1.15278694 6.79545186,0.947047183 6.46591472,0.724982145 C6.13637758,0.502913842 5.77804594,0.326568749 5.39411918,0.195940335 C5.01019242,0.0653138804 4.63266443,0 4.26476661,0 C2.93061792,0 1.88762328,0.375554404 1.13257371,1.12992696 C0.377524143,1.88429952 0,2.92931704 0,4.26498277 C0,4.67319656 0.0703872129,5.09120749 0.211159079,5.52228125 C0.351932225,5.95335502 0.508695921,6.32234763 0.687861743,6.62605869 C0.867024366,6.92976976 1.06858912,7.2269494 1.29574258,7.51433191 C1.52289925,7.80171442 1.68606493,8.00092275 1.79164479,8.1119569 C1.89722465,8.21972534 1.97720619,8.3013681 2.03799139,8.35035376 L7.60809684,13.8367145 C7.7136767,13.9444829 7.84485168,14 8.00158978,14 C8.15516048,14 8.28636745,13.9444829 8.39511471,13.8367145 L13.955622,8.36994802 C15.318562,6.97875541 16,5.61372114 16,4.26824848 C16,2.93258275 15.622504,1.88756523 14.867448,1.13319267 C14.1027939,0.375554404 13.0597929,0 11.7256794,0 Z"/>
</svg>
